<svg width="25" height="25" viewBox="0 0 25 25" fill="none" xmlns="http://www.w3.org/2000/svg">
<g clip-path="url(#clip0_68_1261)">
<path d="M24.056 10.3267L13.8587 10.3262C13.4084 10.3262 13.0435 10.6911 13.0435 11.1414V14.399C13.0435 14.8492 13.4084 15.2142 13.8587 15.2142H19.6012C18.9724 16.8461 17.7987 18.2127 16.3014 19.0811L18.75 23.3198C22.6778 21.0482 25 17.0624 25 12.6006C25 11.9653 24.9531 11.5111 24.8595 10.9998C24.7883 10.6112 24.451 10.3267 24.056 10.3267Z" fill="#2B8BEB"/>
<path d="M12.5 20.1086C9.6897 20.1086 7.23638 18.5731 5.91875 16.301L1.68018 18.7441C3.83716 22.4825 7.87788 24.9999 12.5 24.9999C14.7674 24.9999 16.9069 24.3894 18.75 23.3255V23.3197L16.3014 19.0809C15.1813 19.7305 13.8853 20.1086 12.5 20.1086Z" fill="#14CA51"/>
<path d="M18.75 23.3256V23.3198L16.3014 19.0811C15.1814 19.7306 13.8854 20.1087 12.5 20.1087V25.0001C14.7674 25.0001 16.907 24.3896 18.75 23.3256Z" fill="#11B046"/>
<path d="M4.89131 12.5C4.89131 11.1148 5.26934 9.8189 5.9188 8.69893L1.68022 6.25586C0.610449 8.09312 0 10.2268 0 12.5C0 14.7733 0.610449 16.907 1.68022 18.7442L5.9188 16.3012C5.26934 15.1812 4.89131 13.8853 4.89131 12.5Z" fill="#FFD91A"/>
<path d="M12.5 4.89131C14.3325 4.89131 16.0158 5.54248 17.3306 6.62564C17.655 6.89282 18.1264 6.87354 18.4235 6.57642L20.7316 4.26831C21.0688 3.9312 21.0447 3.37939 20.6846 3.06699C18.4817 1.15591 15.6155 0 12.5 0C7.87788 0 3.83716 2.51743 1.68018 6.25581L5.91875 8.69888C7.23638 6.42676 9.6897 4.89131 12.5 4.89131Z" fill="#FF5F40"/>
<path d="M17.3307 6.62563C17.655 6.89282 18.1265 6.87354 18.4236 6.57642L20.7317 4.26831C21.0688 3.9312 21.0447 3.37939 20.6847 3.06699C18.4818 1.15586 15.6156 0 12.5 0V4.89131C14.3325 4.89131 16.0159 5.54248 17.3307 6.62563Z" fill="#E05033"/>
</g>
<defs>
<clipPath id="clip0_68_1261">
<rect width="25" height="25" fill="white"/>
</clipPath>
</defs>
</svg>
