<svg width="11" height="7" viewBox="0 0 11 7" fill="none" xmlns="http://www.w3.org/2000/svg">
<path d="M4.21994 6.74991C4.04212 6.74991 3.8643 6.68352 3.72826 6.55027L1.06141 3.93077C0.996998 3.86793 0.945811 3.79283 0.910863 3.7099C0.875914 3.62698 0.85791 3.5379 0.85791 3.44791C0.85791 3.35792 0.875914 3.26884 0.910863 3.18592C0.945811 3.10299 0.996998 3.0279 1.06141 2.96505C1.19294 2.83681 1.36938 2.76504 1.55309 2.76504C1.73679 2.76504 1.91323 2.83681 2.04477 2.96505L4.21994 5.10123L8.95612 0.450019C9.08766 0.321776 9.26409 0.25 9.4478 0.25C9.63151 0.25 9.80794 0.321776 9.93948 0.450019C10.0039 0.512829 10.0552 0.587914 10.0902 0.670843C10.1252 0.753773 10.1432 0.842869 10.1432 0.932876C10.1432 1.02288 10.1252 1.11198 10.0902 1.19491C10.0552 1.27784 10.0039 1.35292 9.93948 1.41573L4.71162 6.5498C4.58049 6.67867 4.4038 6.75059 4.21994 6.74991Z" fill="#F4F4F4"/>
</svg>
